<svg width="47.151001" height="36.193848" viewBox="0 0 47.151 36.1938" fill="none" xmlns="http://www.w3.org/2000/svg" xmlns:xlink="http://www.w3.org/1999/xlink">
	<desc>
			Created with Pixso.
	</desc>
	<defs/>
	<path id="01" d="M15.0024 36.1938Q10.6445 36.1938 7.23877 34.0454Q3.84521 31.897 1.9165 27.8198Q0 23.7427 0 18.0908Q0 12.4512 1.9165 8.37402Q3.84521 4.29688 7.23877 2.14844Q10.6445 0 15.0024 0Q19.3481 0 22.7417 2.14844Q26.1475 4.29688 28.064 8.37402Q29.9927 12.4512 29.9927 18.0908Q29.9927 23.7427 28.064 27.8198Q26.1475 31.897 22.7417 34.0454Q19.3481 36.1938 15.0024 36.1938ZM15.0024 29.3457Q18.2007 29.3457 20.0195 26.5991Q21.8506 23.8403 21.8506 18.0908Q21.8506 12.3413 20.0195 9.59473Q18.2007 6.84814 15.0024 6.84814Q11.8408 6.84814 10.0098 9.59473Q8.19092 12.3413 8.19092 18.0908Q8.19092 23.8403 10.0098 26.5991Q11.8408 29.3457 15.0024 29.3457ZM47.151 0.598145L47.151 35.5957L39.0455 35.5957L39.0455 7.09229L32.0509 7.09229L32.0509 0.598145L47.151 0.598145Z" fill="#2E9375" fill-opacity="1.000000" fill-rule="evenodd"/>
</svg>
