<svg width="109.000000" height="109.000000" viewBox="0 0 109 109" fill="none" xmlns="http://www.w3.org/2000/svg" xmlns:xlink="http://www.w3.org/1999/xlink">
	<desc>
			Created with Pixso.
	</desc>
	<defs/>
	<path id="activeinput" d="M54.5 77.8333L54.5 31.1667M107 63.25L107 45.75M2 63.25L2 45.75M25.3333 2L7.83334 2C6.28622 2 4.80252 2.61456 3.70856 3.70856C2.61459 4.80249 2 6.28625 2 7.83331L2 25.3333M83.6667 2L101.167 2C102.714 2 104.198 2.61456 105.291 3.70856C106.385 4.80249 107 6.28625 107 7.83331L107 25.3333M83.6667 107L101.167 107C102.714 107 104.198 106.385 105.291 105.291C106.385 104.198 107 102.714 107 101.167L107 83.6667M25.3333 107L7.83334 107C6.28622 107 4.80252 106.385 3.70856 105.291C2.61459 104.198 2 102.714 2 101.167L2 83.6667M63.25 2L45.75 2M77.8333 54.5L31.1667 54.5M63.25 107L45.75 107" stroke="#575757" stroke-opacity="1.000000" stroke-width="4.000000" stroke-linejoin="round"/>
</svg>
