<svg width="50.000000" height="50.000000" viewBox="0 0 50 50" fill="none" xmlns="http://www.w3.org/2000/svg" xmlns:xlink="http://www.w3.org/1999/xlink">
	<desc>
			Created with Pixso.
	</desc>
	<defs/>
	<path d="M5.20837 24.7764Q5.20776 27.5137 5.9126 30.0547Q6.57422 32.4404 7.85742 34.6533L8.90906 36.4668L7.11865 42.9746L13.8447 41.2188L15.5802 42.1592Q17.7806 43.3516 20.1323 43.9541Q22.5345 44.5703 25.0945 44.5703L25.1051 44.5703Q29.2035 44.5703 32.7087 43.1279Q36.2394 41.6758 39.1685 38.7607Q42.147 35.7969 43.6041 32.2139Q44.9983 28.7861 45 24.792Q45.0016 20.7393 43.577 17.2725Q42.1237 13.7354 39.1857 10.8086Q36.3146 7.94727 32.8527 6.49609Q29.29 5.00195 25.1018 5Q21.0056 5 17.5018 6.44043Q13.9698 7.89258 11.0397 10.8086Q8.06177 13.7725 6.60461 17.3545Q5.21021 20.7822 5.20862 24.7764L5.20837 24.7764ZM5.58704 48.542L0 50L1.53162 44.4326L3.5321 37.1611C1.35315 33.4043 0.207153 29.1406 0.208374 24.7744L0.208618 24.7744C0.214233 11.1143 11.3821 0 25.1041 0C31.764 0.00292969 38.0148 2.58301 42.7146 7.2666C47.4154 11.9492 50.0027 18.1748 50 24.7939C49.9941 38.4551 38.8254 49.5703 25.1051 49.5703L25.0942 49.5703C20.938 49.5703 16.848 48.5332 13.1978 46.5547L5.58704 48.542Z" fill="#575757" fill-opacity="1.000000" fill-rule="evenodd"/>
	<path d="M18.6628 14.042C18.1802 12.9746 17.6721 12.9521 17.213 12.9336C16.8372 12.918 16.4073 12.9189 15.978 12.9189C15.5483 12.9189 14.8501 13.0801 14.26 13.7217C13.6692 14.3633 12.0045 15.915 12.0045 19.0713C12.0045 22.2275 14.3136 25.2773 14.6355 25.7061C14.9578 26.1338 19.0933 32.8174 25.6427 35.3887C31.0859 37.5254 32.1936 37.1006 33.375 36.9932C34.5565 36.8857 37.1875 35.4414 37.7242 33.9434C38.2615 32.4463 38.2615 31.1621 38.1003 30.8936C37.9393 30.627 37.5096 30.4658 36.8652 30.1455C36.2206 29.8242 33.0527 28.2725 32.4622 28.0586C31.8713 27.8447 31.4418 27.7383 31.0121 28.3799C30.5824 29.0215 29.3484 30.4658 28.9723 30.8936C28.5966 31.3232 28.2205 31.376 27.5763 31.0557C26.9315 30.7334 24.8563 30.0566 22.3943 27.8721C20.4788 26.1719 19.1854 24.0713 18.8096 23.4297C18.4336 22.7881 18.7693 22.4404 19.0924 22.1211C19.382 21.833 19.7369 21.3721 20.0594 20.9971C20.3807 20.623 20.488 20.3555 20.7029 19.9277C20.918 19.499 20.8103 19.125 20.6494 18.8037C20.488 18.4834 19.2358 15.3105 18.6628 14.042Z" fill="#575757" fill-opacity="1.000000" fill-rule="nonzero"/>
</svg>
