<svg width="20.000000" height="20.000000" viewBox="0 0 20 20" fill="none" xmlns="http://www.w3.org/2000/svg" xmlns:xlink="http://www.w3.org/1999/xlink">
	<desc>
			Created with Pixso.
	</desc>
	<defs/>
	<path id="Vector" d="M17.0854 2.91016C16.164 1.98389 15.0665 1.24951 13.8569 0.75C12.6473 0.250488 11.3499 -0.00439453 10.0402 0C4.55276 0 0.0804138 4.4502 0.0804138 9.91016C0.0804138 11.6602 0.542725 13.3599 1.40704 14.8599L0 20L5.27637 18.6201C6.73367 19.4102 8.37186 19.8301 10.0402 19.8301C15.5276 19.8301 20 15.3799 20 9.91992C20 7.27002 18.9648 4.78027 17.0854 2.91016ZM10.0402 18.1499C8.55276 18.1499 7.09549 17.75 5.81909 17L5.51758 16.8198L2.3819 17.6401L3.21609 14.6001L3.01508 14.29C2.18869 12.9771 1.74988 11.4595 1.74875 9.91016C1.74875 5.37012 5.46735 1.66992 10.0302 1.66992C12.2412 1.66992 14.3216 2.53027 15.8794 4.08984C16.6507 4.854 17.262 5.7627 17.6778 6.76367C18.0936 7.76416 18.3056 8.8374 18.3015 9.91992C18.3216 14.46 14.603 18.1499 10.0402 18.1499ZM14.5829 11.9902C14.3317 11.8701 13.1055 11.27 12.8844 11.1802C12.6533 11.1001 12.4925 11.0601 12.3216 11.3003C12.1508 11.5503 11.6784 12.1099 11.5377 12.27C11.397 12.4399 11.2462 12.46 10.995 12.3301C10.7437 12.21 9.9397 11.9399 8.99496 11.1001C8.25125 10.4399 7.75879 9.62988 7.60803 9.37988C7.46735 9.12988 7.58795 9 7.7186 8.87012C7.82913 8.76025 7.96985 8.58008 8.09045 8.43994C8.21106 8.30029 8.26129 8.18994 8.34171 8.03027C8.42212 7.85986 8.3819 7.72021 8.32159 7.6001C8.26129 7.47998 7.75879 6.26025 7.5578 5.76025C7.35678 5.28027 7.14572 5.33984 6.99496 5.33008L6.51257 5.33008C6.34171 5.33008 6.08041 5.39014 5.84924 5.64014C5.62814 5.89014 4.98492 6.49023 4.98492 7.70996C4.98492 8.93018 5.87939 10.1099 6 10.27C6.12061 10.4399 7.75879 12.9399 10.2513 14.0103C10.8442 14.27 11.3065 14.4199 11.6683 14.5303C12.2613 14.7202 12.804 14.6899 13.2362 14.6299C13.7186 14.5601 14.7136 14.0303 14.9146 13.4502C15.1256 12.8701 15.1256 12.3799 15.0553 12.27C14.9849 12.1602 14.8342 12.1099 14.5829 11.9902Z" fill="#F8F8F8" fill-opacity="1.000000" fill-rule="nonzero"/>
</svg>
