<svg width="38.000000" height="38.000000" viewBox="0 0 38 38" fill="none" xmlns="http://www.w3.org/2000/svg" xmlns:xlink="http://www.w3.org/1999/xlink">
	<desc>
			Created with Pixso.
	</desc>
	<defs>
		<linearGradient id="paint_linear_1_293_0" x1="1900.000000" y1="0.000000" x2="1900.000000" y2="3800.000000" gradientUnits="userSpaceOnUse">
			<stop stop-color="#2AABEE"/>
			<stop offset="1.000000" stop-color="#229ED9"/>
		</linearGradient>
	</defs>
	<path id="Vector" d="M19 0C13.962 0 9.12595 2.00305 5.56641 5.56494C2.0032 9.1283 0.000976562 13.9608 0 19C0 24.0371 2.00391 28.8732 5.56641 32.4351C9.12595 35.9969 13.962 38 19 38C24.038 38 28.8741 35.9969 32.4336 32.4351C35.9961 28.8732 38 24.0371 38 19C38 13.9629 35.9961 9.12683 32.4336 5.56494C28.8741 2.00305 24.038 0 19 0Z" fill="url(#paint_linear_1_293_0)" fill-opacity="1.000000" fill-rule="nonzero"/>
	<path id="Vector" d="M8.60046 18.7991C14.1401 16.3861 17.8333 14.7952 19.6798 14.0265C24.9583 11.8317 26.0537 11.4506 26.7692 11.4376C26.9265 11.4351 27.2769 11.474 27.5055 11.6588C27.6955 11.8147 27.7489 12.0254 27.7756 12.1735C27.7994 12.3213 27.832 12.6582 27.8053 12.9213C27.5203 15.9257 26.2823 23.2163 25.653 26.5813C25.3887 28.0051 24.8633 28.4825 24.3556 28.5292C23.2513 28.6307 22.4141 27.8 21.3453 27.0997C19.6739 26.0033 18.7298 25.3212 17.1059 24.2515C15.2297 23.0153 16.4469 22.3357 17.5156 21.2255C17.7947 20.9348 22.6575 16.5128 22.7495 16.1118C22.7614 16.0616 22.7733 15.8745 22.6605 15.776C22.5506 15.6771 22.3873 15.7109 22.2686 15.7377C22.0994 15.7758 19.4305 17.5415 14.253 21.0348C13.4959 21.5555 12.8102 21.8093 12.1927 21.796C11.5158 21.7815 10.2095 21.4125 9.23874 21.0972C8.05124 20.7103 7.10422 20.5059 7.18735 19.8489C7.22891 19.5068 7.70093 19.1569 8.60046 18.7991Z" fill="#FFFFFF" fill-opacity="1.000000" fill-rule="nonzero"/>
</svg>
