<svg width="38.000000" height="38.000000" viewBox="0 0 38 38" fill="none" xmlns="http://www.w3.org/2000/svg" xmlns:xlink="http://www.w3.org/1999/xlink">
	<desc>
			Created with Pixso.
	</desc>
	<defs>
		<linearGradient id="paint_linear_1_299_0" x1="1900.000000" y1="3800.000000" x2="1900.000000" y2="0.000000" gradientUnits="userSpaceOnUse">
			<stop stop-color="#1FAF38"/>
			<stop offset="1.000000" stop-color="#60D669"/>
		</linearGradient>
	</defs>
	<path id="Vector" d="M0.158386 18.8287C0.15744 22.147 1.02838 25.387 2.68439 28.2427L0 38L10.0303 35.3818C12.8045 36.8854 15.9129 37.6731 19.0716 37.6733L19.0799 37.6733C29.5074 37.6733 37.9955 29.2262 38 18.8436C38.002 13.8125 36.0357 9.08167 32.4631 5.52234C28.8912 1.96338 24.1407 0.00231934 19.0791 0C8.65042 0 0.162842 8.44666 0.158539 18.8287L0.158386 18.8287Z" fill="url(#paint_linear_1_299_0)" fill-opacity="1.000000" fill-rule="nonzero"/>
	<path id="Vector" d="M14.1839 10.6711C13.817 9.85938 13.4309 9.84302 13.082 9.82874C12.7963 9.81653 12.4697 9.81738 12.1434 9.81738C11.8169 9.81738 11.2862 9.9397 10.8377 10.4272C10.3887 10.9153 9.12354 12.0945 9.12354 14.493C9.12354 16.8917 10.8784 19.2097 11.1231 19.5354C11.368 19.8604 14.5109 24.9399 19.4886 26.894C23.6254 28.5181 24.4673 28.1951 25.3651 28.1136C26.2631 28.0325 28.2626 26.9347 28.6705 25.7963C29.0788 24.658 29.0788 23.6823 28.9564 23.4784C28.834 23.2753 28.5074 23.1532 28.0177 22.9095C27.5278 22.6658 25.1201 21.4863 24.6713 21.3236C24.2223 21.161 23.8959 21.0798 23.5693 21.568C23.2427 22.0554 22.3049 23.1532 22.019 23.4784C21.7335 23.8043 21.4477 23.8448 20.9581 23.601C20.468 23.3564 18.8909 22.8422 17.0197 21.1815C15.5639 19.8893 14.5811 18.2935 14.2954 17.8053C14.0097 17.3179 14.2648 17.0537 14.5103 16.8108C14.7303 16.5923 15.0002 16.2415 15.2453 15.9569C15.4895 15.6722 15.571 15.4691 15.7343 15.1439C15.8977 14.8185 15.8159 14.5338 15.6937 14.2899C15.571 14.0461 14.6194 11.635 14.1839 10.6711Z" fill="#FFFFFF" fill-opacity="1.000000" fill-rule="nonzero"/>
</svg>
