<svg width="66.282990" height="66.282990" viewBox="0 0 66.283 66.283" fill="none" xmlns="http://www.w3.org/2000/svg" xmlns:xlink="http://www.w3.org/1999/xlink">
	<desc>
			Created with Pixso.
	</desc>
	<defs/>
	<path id="play" d="M33.1415 0C26.5867 0 20.1792 1.94373 14.7291 5.58536C9.27899 9.22699 5.03116 14.403 2.52277 20.4588C0.0143738 26.5146 -0.641937 33.1783 0.63681 39.6071C1.91559 46.0359 5.07202 51.9411 9.70694 56.576C14.3419 61.211 20.2471 64.3674 26.6759 65.6462C33.1047 66.925 39.7684 66.2686 45.8242 63.7603C51.88 61.2518 57.056 57.004 60.6977 51.5539C64.3393 46.1038 66.283 39.6963 66.283 33.1415C66.283 24.3518 62.7913 15.9221 56.5761 9.70691C50.3608 3.49167 41.9312 0 33.1415 0ZM50.7704 35.2602L22.3634 49.4637C22.0024 49.6441 21.6013 49.7292 21.1982 49.7109C20.795 49.6927 20.4032 49.5717 20.06 49.3593C19.7168 49.1471 19.4336 48.8506 19.2372 48.498C19.0408 48.1454 18.9378 47.7485 18.938 47.345L18.938 18.938C18.9382 18.5346 19.0415 18.138 19.238 17.7858C19.4346 17.4336 19.7179 17.1374 20.061 16.9254C20.4042 16.7134 20.7958 16.5926 21.1988 16.5744C21.6017 16.5563 22.0026 16.6414 22.3634 16.8217L50.7704 31.0252C51.1631 31.222 51.4933 31.5242 51.724 31.8979C51.9548 32.2717 52.077 32.7022 52.077 33.1415C52.077 33.5807 51.9548 34.0113 51.724 34.3851C51.4933 34.7588 51.1631 35.061 50.7704 35.2578L50.7704 35.2602Z" fill="#F8F8F8" fill-opacity="1.000000" fill-rule="nonzero"/>
</svg>
