<svg width="63" height="68" viewBox="0 0 63 68" fill="none" xmlns="http://www.w3.org/2000/svg">
<path id="Vector" d="M13.9612 32.381H41.8837V38.8571H13.9612V32.381ZM20.9418 58.2857H6.98061V6.47619H31.4127V22.6667H48.8643V32.7048L55.8449 26.2286V19.4286L34.903 0H6.98061C5.12924 0 3.35369 0.682311 2.04457 1.89683C0.735455 3.11135 0 4.7586 0 6.47619V58.2857C0 60.0033 0.735455 61.6506 2.04457 62.8651C3.35369 64.0796 5.12924 64.7619 6.98061 64.7619H20.9418V58.2857ZM13.9612 51.8095H28.2715L31.4127 48.8952V45.3333H13.9612V51.8095ZM56.5429 35.619C56.892 35.619 57.59 35.9429 57.9391 36.2667L62.4765 40.4762C63.1745 41.1238 63.1745 42.419 62.4765 43.0667L58.9862 46.3048L51.6565 39.5048L55.1468 36.2667C55.4958 35.9429 55.8449 35.619 56.5429 35.619ZM56.5429 48.2476L35.2521 68H27.9224V61.2L49.2133 41.4476L56.5429 48.2476Z" fill="#2E9375"/>
</svg>
