<svg width="87.000000" height="87.000000" viewBox="0 0 87 87" fill="none" xmlns="http://www.w3.org/2000/svg" xmlns:xlink="http://www.w3.org/1999/xlink">
	<desc>
			Created with Pixso.
	</desc>
	<defs/>
	<path id="Vector" d="M5.36261 43.1101Q5.36121 48.3704 6.7124 53.2566Q7.98859 57.8715 10.4713 62.1527L11.5228 63.9661L7.11865 79.9743L23.6111 75.6693L25.3465 76.6098Q29.5876 78.9083 34.1201 80.0688Q38.7407 81.2518 43.6642 81.2521L43.6829 81.2521Q51.5776 81.2521 58.3293 78.4741Q65.1252 75.6778 70.7631 70.067Q76.4903 64.3674 79.2985 57.4779Q81.9967 50.8581 82 43.1399Q82.0031 35.3189 79.2521 28.6308Q76.451 21.8208 70.7946 16.1853Q65.2581 10.6689 58.5822 7.87305Q51.7306 5.00366 43.6789 5Q35.7841 5 29.0325 7.77802Q22.2368 10.5741 16.5991 16.1845Q10.8728 21.8831 8.06482 28.7713Q5.36615 35.3913 5.36298 43.1101L5.36261 43.1101ZM5.58698 85.5416L0 87L1.53168 81.4326L6.14587 64.6609C2.35443 58.1228 0.360474 50.7049 0.36261 43.108L0.362976 43.108C0.372803 19.3384 19.8049 0 43.6812 0C55.2695 0.00524902 66.1457 4.495 74.3235 12.6432C82.5027 20.7921 87.0046 31.6234 87 43.142C86.9898 66.9127 67.5563 86.2521 43.6829 86.2521L43.6639 86.2521C36.4321 86.2516 29.3157 84.448 22.9641 81.0057L5.58698 85.5416Z" fill="#FFFFFF" fill-opacity="1.000000" fill-rule="evenodd"/>
	<path id="Vector" d="M32.4736 24.4321C31.6337 22.5736 30.7497 22.5361 29.9509 22.5035C29.2968 22.4755 28.5491 22.4776 27.8021 22.4776C27.0543 22.4776 25.8395 22.7576 24.8126 23.8738C23.7846 24.9911 20.8881 27.691 20.8881 33.1824C20.8881 38.6741 24.9059 43.9811 25.4659 44.7265C26.0267 45.4706 33.2224 57.1003 44.6185 61.5742C54.0897 65.2923 56.0172 64.5528 58.0727 64.3663C60.1286 64.1806 64.7065 61.6671 65.6404 59.0607C66.5751 56.4547 66.5751 54.2209 66.2949 53.7541C66.0146 53.289 65.2669 53.0097 64.1457 52.4518C63.0241 51.8935 57.5119 49.1932 56.4843 48.8206C55.4564 48.4484 54.709 48.2627 53.9612 49.3803C53.2135 50.4962 51.0665 53.0097 50.412 53.7541C49.7583 54.5002 49.1038 54.593 47.983 54.0348C46.861 53.4747 43.2502 52.2975 38.9662 48.4954C35.6331 45.5368 33.3829 41.8833 32.7288 40.7657C32.0748 39.6498 32.6588 39.0449 33.221 38.4887C33.7247 37.9886 34.3426 37.1853 34.9037 36.5338C35.4628 35.882 35.6494 35.4169 36.0232 34.6725C36.3974 33.9275 36.2101 33.2756 35.9302 32.7173C35.6494 32.159 33.4706 26.6389 32.4736 24.4321Z" fill="#FFFFFF" fill-opacity="1.000000" fill-rule="nonzero"/>
</svg>
